REM DIRINDEX 1\2\4,1\2\5,1\2\6,1\3\7,1\3\8,1\3\9,1\3\10
REM DIRNAME folder01,folder02,folder03,folder04,folder05,folder06,folder07,folder08,folder09,folder10
TITLE ""
FILE "a_73.mp3" MP3
  TRACK 01 AUDIO
    TITLE "0:"
    INDEX 01 00:00:00
  TRACK 02 AUDIO
    TITLE "6:cjc058_1934"
    INDEX 01 00:00:13
  TRACK 03 AUDIO
    TITLE "0:"
    INDEX 01 00:03:27
  TRACK 04 AUDIO
    TITLE "4:cjc058_1935"
    INDEX 01 00:03:70
  TRACK 05 AUDIO
    TITLE "0:"
    INDEX 01 00:06:47
  TRACK 06 AUDIO
    TITLE "5:cjc058_1936"
    INDEX 01 00:07:03
  TRACK 07 AUDIO
    TITLE "0:"
    INDEX 01 00:09:65
  TRACK 08 AUDIO
    TITLE "4:cjc058_1937"
    INDEX 01 00:10:68
  TRACK 09 AUDIO
    TITLE "0:"
    INDEX 01 00:12:56
  TRACK 10 AUDIO
    TITLE "5:cjc058_1938"
    INDEX 01 00:13:14
  TRACK 11 AUDIO
    TITLE "0:"
    INDEX 01 00:16:36
  TRACK 12 AUDIO
    TITLE "4:cjc058_1939"
    INDEX 01 00:17:43
  TRACK 13 AUDIO
    TITLE "0:"
    INDEX 01 00:19:48
  TRACK 14 AUDIO
    TITLE "5:cjc058_1940"
    INDEX 01 00:20:06
  TRACK 15 AUDIO
    TITLE "0:"
    INDEX 01 00:23:08
  TRACK 16 AUDIO
    TITLE "4:cjc058_1941"
    INDEX 01 00:24:14
  TRACK 17 AUDIO
    TITLE "0:"
    INDEX 01 00:26:32
  TRACK 18 AUDIO
    TITLE "5:cjc058_1942"
    INDEX 01 00:26:64
  TRACK 19 AUDIO
    TITLE "0:"
    INDEX 01 00:30:36
  TRACK 20 AUDIO
    TITLE "4:cjc058_1943"
    INDEX 01 00:31:39
  TRACK 21 AUDIO
    TITLE "0:"
    INDEX 01 00:33:13
  TRACK 22 AUDIO
    TITLE "5:cjc058_1944"
    INDEX 01 00:33:46
  TRACK 23 AUDIO
    TITLE "0:"
    INDEX 01 00:35:68
  TRACK 24 AUDIO
    TITLE "4:cjc058_1945"
    INDEX 01 00:36:74
  TRACK 25 AUDIO
    TITLE "0:"
    INDEX 01 00:39:45
  TRACK 26 AUDIO
    TITLE "5:cjc058_1946"
    INDEX 01 00:40:03
  TRACK 27 AUDIO
    TITLE "0:"
    INDEX 01 00:42:39
  TRACK 28 AUDIO
    TITLE "4:cjc058_1947"
    INDEX 01 00:43:42
  TRACK 29 AUDIO
    TITLE "0:"
    INDEX 01 00:45:14
  TRACK 30 AUDIO
    TITLE "5:cjc058_1948"
    INDEX 01 00:45:45
  TRACK 31 AUDIO
    TITLE "0:"
    INDEX 01 00:48:04
  TRACK 32 AUDIO
    TITLE "4:cjc058_1949"
    INDEX 01 00:49:08
  TRACK 33 AUDIO
    TITLE "0:"
    INDEX 01 00:50:31
  TRACK 34 AUDIO
    TITLE "5:cjc058_1950"
    INDEX 01 00:50:62
  TRACK 35 AUDIO
    TITLE "0:"
    INDEX 01 00:54:05
  TRACK 36 AUDIO
    TITLE "4:cjc058_1951"
    INDEX 01 00:55:04
  TRACK 37 AUDIO
    TITLE "0:"
    INDEX 01 00:56:53
  TRACK 38 AUDIO
    TITLE "5:cjc058_1952"
    INDEX 01 00:57:09
  TRACK 39 AUDIO
    TITLE "0:"
    INDEX 01 00:59:38
  TRACK 40 AUDIO
    TITLE "4:cjc058_1953"
    INDEX 01 01:00:41
  TRACK 41 AUDIO
    TITLE "0:"
    INDEX 01 01:02:24
  TRACK 42 AUDIO
    TITLE "5:cjc058_1954"
    INDEX 01 01:02:55
  TRACK 43 AUDIO
    TITLE "0:"
    INDEX 01 01:05:07
  TRACK 44 AUDIO
    TITLE "4:cjc058_1955"
    INDEX 01 01:06:08
  TRACK 45 AUDIO
    TITLE "0:"
    INDEX 01 01:08:13
  TRACK 46 AUDIO
    TITLE "5:cjc058_1956"
    INDEX 01 01:08:44
  TRACK 47 AUDIO
    TITLE "0:"
    INDEX 01 01:10:14
  TRACK 48 AUDIO
    TITLE "4:cjc058_1957"
    INDEX 01 01:11:19
  TRACK 49 AUDIO
    TITLE "0:"
    INDEX 01 01:13:04
  TRACK 50 AUDIO
    TITLE "5:cjc058_1958"
    INDEX 01 01:13:36
  TRACK 51 AUDIO
    TITLE "0:"
    INDEX 01 01:14:72
  TRACK 52 AUDIO
    TITLE "4:cjc058_1959"
    INDEX 01 01:16:05
  TRACK 53 AUDIO
    TITLE "0:"
    INDEX 01 01:18:00
  TRACK 54 AUDIO
    TITLE "5:cjc058_1960"
    INDEX 01 01:18:33
  TRACK 55 AUDIO
    TITLE "0:"
    INDEX 01 01:20:16
  TRACK 56 AUDIO
    TITLE "4:cjc058_1961"
    INDEX 01 01:21:23
  TRACK 57 AUDIO
    TITLE "0:"
    INDEX 01 01:22:44
  TRACK 58 AUDIO
    TITLE "5:cjc058_1962"
    INDEX 01 01:22:72
  TRACK 59 AUDIO
    TITLE "0:"
    INDEX 01 01:24:41
